HIERARCHY
ROOT Hips
{
	OFFSET -0.066283 88.859909 3.106752
	CHANNELS 6 Xposition Yposition Zposition Zrotation Yrotation Xrotation 
	JOINT Spine
	{
		OFFSET -0.000000 8.814246 -2.080107
		CHANNELS 3 Zrotation Yrotation Xrotation
		JOINT Spine1
		{
			OFFSET -0.000000 8.844141 0.000000
			CHANNELS 3 Zrotation Yrotation Xrotation
			JOINT Spine2
			{
				OFFSET 0.000000 11.682268 0.000000
				CHANNELS 3 Zrotation Yrotation Xrotation
				JOINT Spine3
				{
					OFFSET -0.000000 11.746700 0.000000
					CHANNELS 3 Zrotation Yrotation Xrotation
					JOINT Neck
					{
						OFFSET -0.000000 17.658264 0.000000
						CHANNELS 3 Zrotation Yrotation Xrotation
						JOINT Neck1
						{
							OFFSET 0.000000 5.101515 -0.000000
							CHANNELS 3 Zrotation Yrotation Xrotation
							JOINT Head
							{
								OFFSET -0.000000 5.101515 -0.000000
								CHANNELS 3 Zrotation Yrotation Xrotation
								JOINT HeadEnd
								{
									OFFSET 0.000000 11.655085 -0.000000
									CHANNELS 3 Zrotation Yrotation Xrotation
									End Site
									{
										OFFSET 0.000000 0.000000 0.000000
									}
								}
							}
						}
					}
					JOINT RightShoulder
					{
						OFFSET -2.625389 11.175210 -0.000000
						CHANNELS 3 Zrotation Yrotation Xrotation
						JOINT RightArm
						{
							OFFSET 0.000000 10.434715 -0.000000
							CHANNELS 3 Zrotation Yrotation Xrotation
							JOINT RightForeArm
							{
								OFFSET -0.000000 29.628420 0.000000
								CHANNELS 3 Zrotation Yrotation Xrotation
								JOINT RightHand
								{
									OFFSET -0.000000 22.857611 0.000000
									CHANNELS 3 Zrotation Yrotation Xrotation
									JOINT RightHandThumb1
									{
										OFFSET -2.867323 3.959563 2.944291
										CHANNELS 3 Zrotation Yrotation Xrotation
										JOINT RightHandThumb2
										{
											OFFSET -0.000000 3.350399 0.000000
											CHANNELS 3 Zrotation Yrotation Xrotation
											JOINT RightHandThumb3
											{
												OFFSET -0.000000 3.756509 -0.000000
												CHANNELS 3 Zrotation Yrotation Xrotation
												JOINT RightHandThumb4
												{
													OFFSET -0.000000 3.147345 0.000000
													CHANNELS 3 Zrotation Yrotation Xrotation
													End Site
													{
														OFFSET 0.000000 0.000000 0.000000
													}
												}
											}
										}
									}
									JOINT RightHandIndex1
									{
										OFFSET -0.086752 10.030893 2.345280
										CHANNELS 3 Zrotation Yrotation Xrotation
										JOINT RightHandIndex2
										{
											OFFSET 0.000000 4.061090 -0.000000
											CHANNELS 3 Zrotation Yrotation Xrotation
											JOINT RightHandIndex3
											{
												OFFSET 0.000000 3.248873 -0.000000
												CHANNELS 3 Zrotation Yrotation Xrotation
												JOINT RightHandIndex4
												{
													OFFSET 0.000000 2.639709 0.000000
													CHANNELS 3 Zrotation Yrotation Xrotation
													End Site
													{
														OFFSET 0.000000 0.000000 0.000000
													}
												}
											}
										}
									}
									JOINT RightHandMiddle1
									{
										OFFSET 0.104102 9.502952 0.006768
										CHANNELS 3 Zrotation Yrotation Xrotation
										JOINT RightHandMiddle2
										{
											OFFSET 0.000000 4.568727 0.000000
											CHANNELS 3 Zrotation Yrotation Xrotation
											JOINT RightHandMiddle3
											{
												OFFSET 0.000000 3.654981 -0.000000
												CHANNELS 3 Zrotation Yrotation Xrotation
												JOINT RightHandMiddle4
												{
													OFFSET -0.000000 2.741236 0.000000
													CHANNELS 3 Zrotation Yrotation Xrotation
													End Site
													{
														OFFSET 0.000000 0.000000 0.000000
													}
												}
											}
										}
									}
									JOINT RightHandRing1
									{
										OFFSET 0.086752 8.921708 -2.267442
										CHANNELS 3 Zrotation Yrotation Xrotation
										JOINT RightHandRing2
										{
											OFFSET 0.000000 4.061090 -0.000000
											CHANNELS 3 Zrotation Yrotation Xrotation
											JOINT RightHandRing3
											{
												OFFSET -0.000000 3.654981 0.000000
												CHANNELS 3 Zrotation Yrotation Xrotation
												JOINT RightHandRing4
												{
													OFFSET -0.000000 2.741236 0.000000
													CHANNELS 3 Zrotation Yrotation Xrotation
													End Site
													{
														OFFSET 0.000000 0.000000 0.000000
													}
												}
											}
										}
									}
									JOINT RightHandPinky1
									{
										OFFSET -0.173504 7.976997 -4.467199
										CHANNELS 3 Zrotation Yrotation Xrotation
										JOINT RightHandPinky2
										{
											OFFSET -0.000000 3.350399 0.000000
											CHANNELS 3 Zrotation Yrotation Xrotation
											JOINT RightHandPinky3
											{
												OFFSET 0.000000 2.842763 0.000000
												CHANNELS 3 Zrotation Yrotation Xrotation
												JOINT RightHandPinky4
												{
													OFFSET 0.000000 2.639709 0.000000
													CHANNELS 3 Zrotation Yrotation Xrotation
													End Site
													{
														OFFSET 0.000000 0.000000 0.000000
													}
												}
											}
										}
									}
									JOINT RightForeArmEnd
									{
										OFFSET 0.000000 0.000000 0.000000
										CHANNELS 3 Zrotation Yrotation Xrotation
										End Site
										{
											OFFSET 0.000000 0.000000 0.000000
										}
									}
								}
								JOINT RightArmEnd
								{
									OFFSET 0.000000 0.000000 0.000000
									CHANNELS 3 Zrotation Yrotation Xrotation
									End Site
									{
										OFFSET 0.000000 0.000000 0.000000
									}
								}
							}
						}
					}
					JOINT LeftShoulder
					{
						OFFSET 2.625389 11.175210 0.000000
						CHANNELS 3 Zrotation Yrotation Xrotation
						JOINT LeftArm
						{
							OFFSET -0.000000 10.813635 -0.000000
							CHANNELS 3 Zrotation Yrotation Xrotation
							JOINT LeftForeArm
							{
								OFFSET -0.000000 28.724781 -0.000000
								CHANNELS 3 Zrotation Yrotation Xrotation
								JOINT LeftHand
								{
									OFFSET 0.644384 25.716167 -0.328871
									CHANNELS 3 Zrotation Yrotation Xrotation
									JOINT LeftHandThumb1
									{
										OFFSET 2.867323 3.959563 2.944291
										CHANNELS 3 Zrotation Yrotation Xrotation
										JOINT LeftHandThumb2
										{
											OFFSET 0.000000 3.350399 0.000000
											CHANNELS 3 Zrotation Yrotation Xrotation
											JOINT LeftHandThumb3
											{
												OFFSET -0.000000 3.756509 -0.000000
												CHANNELS 3 Zrotation Yrotation Xrotation
												JOINT LeftHandThumb4
												{
													OFFSET 0.000000 3.100000 0.000000
													CHANNELS 3 Zrotation Yrotation Xrotation
													End Site
													{
														OFFSET 0.000000 0.000000 0.000000
													}
												}
											}
										}
									}
									JOINT LeftHandIndex1
									{
										OFFSET 0.086752 10.030893 2.345280
										CHANNELS 3 Zrotation Yrotation Xrotation
										JOINT LeftHandIndex2
										{
											OFFSET 0.000000 4.061090 0.000000
											CHANNELS 3 Zrotation Yrotation Xrotation
											JOINT LeftHandIndex3
											{
												OFFSET -0.000000 3.248873 -0.000000
												CHANNELS 3 Zrotation Yrotation Xrotation
												JOINT LeftHandIndex4
												{
													OFFSET 0.000000 2.639709 0.000000
													CHANNELS 3 Zrotation Yrotation Xrotation
													End Site
													{
														OFFSET 0.000000 0.000000 0.000000
													}
												}
											}
										}
									}
									JOINT LeftHandMiddle1
									{
										OFFSET -0.104102 9.502952 0.006768
										CHANNELS 3 Zrotation Yrotation Xrotation
										JOINT LeftHandMiddle2
										{
											OFFSET -0.000000 4.568727 -0.000000
											CHANNELS 3 Zrotation Yrotation Xrotation
											JOINT LeftHandMiddle3
											{
												OFFSET -0.000000 3.654981 -0.000000
												CHANNELS 3 Zrotation Yrotation Xrotation
												JOINT LeftHandMiddle4
												{
													OFFSET 0.000000 2.741236 0.000000
													CHANNELS 3 Zrotation Yrotation Xrotation
													End Site
													{
														OFFSET 0.000000 0.000000 0.000000
													}
												}
											}
										}
									}
									JOINT LeftHandRing1
									{
										OFFSET -0.086752 8.921708 -2.267442
										CHANNELS 3 Zrotation Yrotation Xrotation
										JOINT LeftHandRing2
										{
											OFFSET 0.000000 4.061090 0.000000
											CHANNELS 3 Zrotation Yrotation Xrotation
											JOINT LeftHandRing3
											{
												OFFSET 0.000000 3.654981 -0.000000
												CHANNELS 3 Zrotation Yrotation Xrotation
												JOINT LeftHandRing4
												{
													OFFSET -0.000000 2.741236 -0.000000
													CHANNELS 3 Zrotation Yrotation Xrotation
													End Site
													{
														OFFSET 0.000000 0.000000 0.000000
													}
												}
											}
										}
									}
									JOINT LeftHandPinky1
									{
										OFFSET 0.173504 7.976997 -4.467199
										CHANNELS 3 Zrotation Yrotation Xrotation
										JOINT LeftHandPinky2
										{
											OFFSET -0.000000 3.350399 -0.000000
											CHANNELS 3 Zrotation Yrotation Xrotation
											JOINT LeftHandPinky3
											{
												OFFSET 0.000000 2.842763 -0.000000
												CHANNELS 3 Zrotation Yrotation Xrotation
												JOINT LeftHandPinky4
												{
													OFFSET -0.000000 2.639709 -0.000000
													CHANNELS 3 Zrotation Yrotation Xrotation
													End Site
													{
														OFFSET 0.000000 0.000000 0.000000
													}
												}
											}
										}
									}
									JOINT LeftForeArmEnd
									{
										OFFSET 0.000000 0.000000 0.000000
										CHANNELS 3 Zrotation Yrotation Xrotation
										End Site
										{
											OFFSET 0.000000 0.000000 0.000000
										}
									}
								}
								JOINT LeftArmEnd
								{
									OFFSET 0.000000 0.000000 0.000000
									CHANNELS 3 Zrotation Yrotation Xrotation
									End Site
									{
										OFFSET 0.000000 0.000000 0.000000
									}
								}
							}
						}
					}
				}
			}
		}
	}
	JOINT RightUpLeg
	{
		OFFSET -11.289943 -0.000000 0.000000
		CHANNELS 3 Zrotation Yrotation Xrotation
		JOINT RightLeg
		{
			OFFSET 0.000000 -38.200325 -0.000000
			CHANNELS 3 Zrotation Yrotation Xrotation
			JOINT RightFoot
			{
				OFFSET -0.000000 -39.900856 0.000000
				CHANNELS 3 Zrotation Yrotation Xrotation
				JOINT RightToeBase
				{
					OFFSET 0.000000 0.000000 15.261641
					CHANNELS 3 Zrotation Yrotation Xrotation
					JOINT RightToeBaseEnd
					{
						OFFSET 0.000000 0.000000 7.370709
						CHANNELS 3 Zrotation Yrotation Xrotation
						End Site
						{
							OFFSET 0.000000 0.000000 0.000000
						}
					}
				}
				JOINT RightLegEnd
				{
					OFFSET 0.000000 0.000000 0.000000
					CHANNELS 3 Zrotation Yrotation Xrotation
					End Site
					{
						OFFSET 0.000000 0.000000 0.000000
					}
				}
			}
			JOINT RightUpLegEnd
			{
				OFFSET 0.000000 0.000000 0.000000
				CHANNELS 3 Zrotation Yrotation Xrotation
				End Site
				{
					OFFSET 0.000000 0.000000 0.000000
				}
			}
		}
	}
	JOINT LeftUpLeg
	{
		OFFSET 11.315661 0.000000 0.000000
		CHANNELS 3 Zrotation Yrotation Xrotation
		JOINT LeftLeg
		{
			OFFSET 0.000000 -38.200325 -0.000000
			CHANNELS 3 Zrotation Yrotation Xrotation
			JOINT LeftFoot
			{
				OFFSET 0.000000 -39.900856 -0.000000
				CHANNELS 3 Zrotation Yrotation Xrotation
				JOINT LeftToeBase
				{
					OFFSET 0.000000 -0.000000 15.261641
					CHANNELS 3 Zrotation Yrotation Xrotation
					JOINT LeftToeBaseEnd
					{
						OFFSET -0.000000 0.000000 7.539996
						CHANNELS 3 Zrotation Yrotation Xrotation
						End Site
						{
							OFFSET 0.000000 0.000000 0.000000
						}
					}
				}
				JOINT LeftLegEnd
				{
					OFFSET 0.000000 0.000000 0.000000
					CHANNELS 3 Zrotation Yrotation Xrotation
					End Site
					{
						OFFSET 0.000000 0.000000 0.000000
					}
				}
			}
			JOINT LeftUpLegEnd
			{
				OFFSET 0.000000 0.000000 0.000000
				CHANNELS 3 Zrotation Yrotation Xrotation
				End Site
				{
					OFFSET 0.000000 0.000000 0.000000
				}
			}
		}
	}
}
MOTION
Frames: 4
Frame Time: 0.016667
-1.111542 88.610886 2.857214 -0.834536 -2.223803 -11.667281 -1.021472 -0.009202 7.680779 0.375552 -0.400391 0.989927 0.375192 -0.727666 6.708278 1.774058 -0.496553 5.200839 1.601058 -0.908461 6.255190 0.347611 0.349375 -2.533488 -0.514335 0.585534 -21.588140 0.000000 0.000000 0.000000 89.648239 -0.284472 3.417418 71.703636 -8.507971 -2.747550 -0.791289 14.623834 80.944466 16.755079 25.316811 -2.274852 7.984522 -1.488395 41.162689 -0.000008 -0.000002 -19.231682 0.000011 0.000041 -13.472221 0.000004 0.000004 0.000002 1.315008 17.121992 1.097426 2.752392 -0.943982 -0.915683 2.531065 0.041028 -0.868652 0.000002 0.000030 -0.000005 2.147085 7.072533 -3.399748 2.845972 -0.986459 -0.412275 2.901033 0.007253 -0.342699 -0.000010 0.000053 0.000016 9.445485 -9.001855 -9.554964 4.566961 1.945537 0.757240 4.398757 -0.042222 0.578925 -0.000043 0.000184 0.000007 19.371744 -24.915836 -17.877424 6.281152 3.742330 2.980242 6.215071 -0.230147 2.512186 -0.000507 0.000011 -0.000032 0.000000 0.000000 0.000000 0.000000 0.000000 0.000000 -90.574860 0.257341 8.715792 -68.622131 19.979645 -0.262732 -1.357951 -17.569326 42.328724 -1.700808 -16.126318 -18.274214 -8.948456 1.683601 40.590736 0.000008 0.000016 -21.971720 -0.000001 -0.000019 -15.341763 0.000989 0.000026 -0.002138 -7.088767 16.934284 -6.332871 -4.431728 -0.939105 1.140573 -4.338463 0.037248 1.031992 -0.000013 -0.000854 -0.000009 -6.001923 6.959639 -8.832973 -4.064394 -0.986678 0.424547 -3.887364 0.008397 0.363104 -0.000382 -0.000025 -0.000003 -4.476238 -8.849758 -12.033385 -4.393112 1.974928 -0.697316 -4.156466 -0.023563 -0.516790 -0.000711 0.000011 -0.000001 0.078739 -25.256880 -18.182013 -4.347508 3.820599 -2.080472 -4.560497 -0.118374 -1.842073 0.000633 -0.000014 -0.000048 0.000000 0.000000 0.000000 0.000000 0.000000 0.000000 2.090819 5.349934 10.881322 -0.100345 -0.427450 10.267155 -4.926216 3.230105 16.221664 -0.242502 0.523660 -20.381310 0.000000 0.000000 0.000000 0.000000 0.000000 0.000000 0.000000 0.000000 0.000000 2.721852 10.824215 17.784649 0.046710 0.702942 3.602941 1.289649 6.775829 16.017979 0.923096 -0.857375 -18.516821 0.000000 0.000000 0.000000 0.000000 0.000000 0.000000 0.000000 0.000000 0.000000 
-1.110685 88.611496 2.874267 -0.823985 -2.196638 -11.693645 -1.022826 -0.006129 7.686239 0.367225 -0.394846 0.990930 0.387345 -0.727239 6.702278 1.775396 -0.494598 5.229877 1.605956 -0.897307 6.279315 0.354868 0.360560 -2.523142 -0.512306 0.585915 -21.606110 0.000000 0.000000 0.000000 89.658501 -0.283399 3.400615 71.760307 -8.296169 -2.863647 -0.786222 14.682355 80.895821 16.820471 25.529636 -2.220661 7.981563 -1.486569 41.166180 -0.000008 -0.000003 -19.221767 0.000011 0.000041 -13.463364 0.000003 0.000005 0.000002 1.315439 17.126772 1.175416 2.763862 -0.946524 -0.901313 2.541001 0.038625 -0.855013 0.000002 0.000030 -0.000004 2.150170 7.074528 -3.340107 2.857341 -0.987481 -0.406693 2.913362 0.006427 -0.338107 -0.000011 0.000053 0.000016 9.493217 -9.002015 -9.507054 4.588185 1.947013 0.750602 4.419403 -0.041161 0.573390 -0.000043 0.000177 0.000007 19.464546 -24.906115 -17.853148 6.311754 3.746395 2.965860 6.247160 -0.226947 2.498850 -0.000505 0.000011 -0.000032 0.000000 0.000000 0.000000 0.000000 0.000000 0.000000 -90.561752 0.251651 8.688114 -68.657867 19.680149 -0.251763 -1.350011 -17.665628 42.433865 -1.640366 -16.011059 -18.279737 -8.845670 1.671554 40.638260 0.000008 0.000015 -21.720663 -0.000002 -0.000020 -15.170072 0.001001 0.000026 -0.002115 -6.505358 16.935390 -6.111642 -4.118300 -0.944622 1.100252 -4.022770 0.032033 0.995326 -0.000013 -0.000879 -0.000010 -5.502320 6.958701 -8.685317 -3.753816 -0.988868 0.409517 -3.577452 0.006554 0.350488 -0.000411 -0.000025 -0.000002 -4.033069 -8.844980 -11.991796 -4.089419 1.978169 -0.677985 -3.852032 -0.021216 -0.501759 -0.000749 0.000011 -0.000001 0.510112 -25.239420 -18.249966 -4.090984 3.828482 -2.027523 -4.306585 -0.111936 -1.799909 0.000639 -0.000014 -0.000048 0.000000 0.000000 0.000000 0.000000 0.000000 0.000000 2.071429 5.329113 10.900780 -0.100890 -0.428447 10.292676 -4.920969 3.210314 16.191702 -0.245396 0.523969 -20.370838 0.000000 0.000000 0.000000 0.000000 0.000000 0.000000 0.000000 0.000000 0.000000 2.723343 10.817827 17.828569 0.046902 0.704647 3.593402 1.288120 6.750116 16.003328 0.925518 -0.860056 -18.507084 0.000000 0.000000 0.000000 0.000000 0.000000 0.000000 0.000000 0.000000 0.000000 
-1.110263 88.612137 2.891531 -0.814185 -2.168357 -11.720967 -1.026462 -0.003325 7.691851 0.359572 -0.390289 0.992044 0.397005 -0.727565 6.695239 1.777069 -0.493382 5.259050 1.612380 -0.885780 6.308994 0.362362 0.372821 -2.508368 -0.510750 0.586830 -21.620657 0.000000 0.000000 0.000000 89.669746 -0.282782 3.382689 71.807442 -8.100713 -2.963319 -0.781489 14.743031 80.832184 16.831997 25.721432 -2.189954 7.976540 -1.484683 41.170361 -0.000008 -0.000003 -19.206741 0.000011 0.000042 -13.451593 0.000003 0.000005 0.000003 1.304299 17.129549 1.244208 2.764719 -0.948658 -0.887661 2.540261 0.036617 -0.842058 0.000002 0.000030 -0.000004 2.143851 7.075790 -3.287740 2.858894 -0.988334 -0.401375 2.916150 0.005695 -0.333703 -0.000011 0.000053 0.000016 9.534538 -9.001485 -9.460666 4.600712 1.948192 0.744408 4.431212 -0.040261 0.568135 -0.000043 0.000168 0.000007 19.551352 -24.894661 -17.826494 6.334380 3.749497 2.952773 6.271327 -0.224470 2.486378 -0.000503 0.000011 -0.000032 0.000000 0.000000 0.000000 0.000000 0.000000 0.000000 -90.545258 0.244133 8.657836 -68.697227 19.374210 -0.237137 -1.346432 -17.754005 42.528339 -1.562833 -15.910061 -18.293869 -8.744213 1.659397 40.685425 0.000008 0.000015 -21.472113 -0.000003 -0.000020 -15.000292 0.001015 0.000026 -0.002090 -5.924135 16.935843 -5.896390 -3.812989 -0.949577 1.061950 -3.714938 0.027342 0.960365 -0.000014 -0.000901 -0.000010 -5.003931 6.957777 -8.540772 -3.451469 -0.990827 0.395221 -3.275950 0.004854 0.338461 -0.000438 -0.000025 -0.000002 -3.592917 -8.840323 -11.947349 -3.793252 1.980993 -0.659685 -3.555248 -0.019094 -0.487428 -0.000785 0.000011 -0.000001 0.935438 -25.221977 -18.309359 -3.840385 3.835274 -1.977743 -4.058317 -0.106263 -1.760133 0.000646 -0.000014 -0.000047 0.000000 0.000000 0.000000 0.000000 0.000000 0.000000 2.053630 5.309241 10.922634 -0.101433 -0.429316 10.317594 -4.916761 3.186777 16.162809 -0.248132 0.524106 -20.361357 0.000000 0.000000 0.000000 0.000000 0.000000 0.000000 0.000000 0.000000 0.000000 2.726339 10.811057 17.873236 0.047055 0.706523 3.585055 1.286485 6.722737 15.985548 0.928293 -0.862387 -18.495735 0.000000 0.000000 0.000000 0.000000 0.000000 0.000000 0.000000 0.000000 0.000000 
-1.110281 88.612717 2.909219 -0.805910 -2.139006 -11.749002 -1.031757 -0.000965 7.697842 0.352578 -0.386709 0.992025 0.404315 -0.730058 6.689675 1.779621 -0.493392 5.286852 1.619873 -0.873000 6.341641 0.369900 0.387759 -2.490379 -0.510271 0.587900 -21.630917 0.000000 0.000000 0.000000 89.681427 -0.281883 3.363166 71.845963 -7.919304 -3.043552 -0.777850 14.803437 80.766205 16.789312 25.877794 -2.181848 7.972237 -1.483063 41.173923 -0.000007 -0.000003 -19.193760 0.000011 0.000042 -13.441952 0.000004 0.000005 0.000003 1.295055 17.130487 1.297890 2.763764 -0.950585 -0.874855 2.537674 0.034821 -0.829945 0.000003 0.000030 -0.000004 2.139851 7.076353 -3.245424 2.858947 -0.989100 -0.396352 2.917641 0.005001 -0.329532 -0.000011 0.000054 0.000016 9.578191 -9.000229 -9.414585 4.612134 1.949202 0.738629 4.441941 -0.039431 0.563149 -0.000042 0.000156 0.000008 19.635847 -24.881693 -17.792139 6.355023 3.752077 2.940671 6.293812 -0.222301 2.474498 -0.000500 0.000011 -0.000032 0.000000 0.000000 0.000000 0.000000 0.000000 0.000000 -90.525284 0.234689 8.626953 -68.741081 19.066296 -0.222871 -1.346938 -17.834118 42.611729 -1.465937 -15.826979 -18.317373 -8.644881 1.647355 40.731815 0.000008 0.000015 -21.227901 -0.000003 -0.000020 -14.833556 0.001032 0.000026 -0.002060 -5.349211 16.934994 -5.686649 -3.515832 -0.954071 1.025718 -3.415278 0.023063 0.927205 -0.000014 -0.000921 -0.000010 -4.510955 6.956560 -8.397878 -3.157517 -0.992587 0.381694 -2.983135 0.003273 0.327063 -0.000463 -0.000025 -0.000002 -3.162022 -8.835402 -11.896540 -3.505795 1.983447 -0.642442 -3.267296 -0.017152 -0.473819 -0.000817 0.000012 -0.000001 1.345768 -25.203850 -18.354427 -3.597746 3.841153 -1.931065 -3.817467 -0.101186 -1.722739 0.000653 -0.000013 -0.000047 0.000000 0.000000 0.000000 0.000000 0.000000 0.000000 2.038794 5.290545 10.947671 -0.101951 -0.429968 10.341045 -4.914200 3.159536 16.133839 -0.250653 0.523987 -20.352148 0.000000 0.000000 0.000000 0.000000 0.000000 0.000000 0.000000 0.000000 0.000000 2.731175 10.805169 17.918766 0.047161 0.708565 3.577985 1.284439 6.696070 15.964152 0.931614 -0.864372 -18.483137 0.000000 0.000000 0.000000 0.000000 0.000000 0.000000 0.000000 0.000000 0.000000 
